<?xml version="1.0" encoding="UTF-8"?>
<!--Generator: Apple Native CoreSVG 326-->
<!DOCTYPE svg
PUBLIC "-//W3C//DTD SVG 1.1//EN"
       "http://www.w3.org/Graphics/SVG/1.1/DTD/svg11.dtd">
<svg version="1.1" xmlns="http://www.w3.org/2000/svg" xmlns:xlink="http://www.w3.org/1999/xlink" viewBox="0 0 14.8984 11.3984">
 <g>
  <rect height="11.3984" opacity="0" width="14.8984" x="0" y="0"/>
  <path d="M14.4922 1.97656L14.4922 9.42969C14.4922 10.7422 13.8359 11.3984 12.5 11.3984L1.99219 11.3984C0.664062 11.3984 0 10.7422 0 9.42969L0 1.97656C0 0.664062 0.664062 0.0078125 1.99219 0.0078125L12.5 0.0078125C13.8359 0.0078125 14.4922 0.664062 14.4922 1.97656ZM5.41406 3.51562L5.41406 7.89844C5.41406 8.21875 5.77344 8.375 6.08594 8.17969L9.70312 6.0625C9.97656 5.90625 9.96875 5.51562 9.70312 5.35156L6.08594 3.23438C5.80469 3.0625 5.41406 3.19531 5.41406 3.51562Z" fill="black" fill-opacity="0.85"/>
 </g>
</svg>
