<?xml version="1.0" encoding="UTF-8"?>
<!--Generator: Apple Native CoreSVG 326-->
<!DOCTYPE svg
PUBLIC "-//W3C//DTD SVG 1.1//EN"
       "http://www.w3.org/Graphics/SVG/1.1/DTD/svg11.dtd">
<svg version="1.1" xmlns="http://www.w3.org/2000/svg" xmlns:xlink="http://www.w3.org/1999/xlink" viewBox="0 0 11.8203 15.1172">
 <g>
  <rect height="15.1172" opacity="0" width="11.8203" x="0" y="0"/>
  <path d="M5.35156 3.00781C5.4375 3.00781 5.48438 2.95312 5.5 2.88281C5.69531 1.875 5.67969 1.85938 6.72656 1.65625C6.80469 1.64062 6.85938 1.59375 6.85938 1.50781C6.85938 1.42188 6.80469 1.375 6.72656 1.35938C5.67969 1.15625 5.69531 1.14062 5.5 0.132812C5.48438 0.0546875 5.4375 0 5.35156 0C5.27344 0 5.22656 0.0546875 5.21094 0.132812C5.00781 1.14062 5.03125 1.15625 3.98438 1.35938C3.90625 1.375 3.85156 1.42188 3.85156 1.50781C3.85156 1.59375 3.90625 1.64062 3.98438 1.65625C5.03125 1.85938 5.00781 1.875 5.21094 2.88281C5.22656 2.95312 5.27344 3.00781 5.35156 3.00781Z" fill="black" fill-opacity="0.85"/>
  <path d="M2.42188 7.25C2.54688 7.25 2.63281 7.16406 2.64844 7.03906C2.85938 5.40625 2.92969 5.39844 4.625 5.07031C4.74219 5.05469 4.83594 4.96875 4.83594 4.84375C4.83594 4.71094 4.74219 4.625 4.625 4.60938C2.92969 4.39062 2.85156 4.3125 2.64844 2.64844C2.63281 2.51562 2.54688 2.42969 2.42188 2.42969C2.28906 2.42969 2.20312 2.51562 2.1875 2.65625C2 4.28906 1.88281 4.28906 0.210938 4.60938C0.09375 4.63281 0 4.71094 0 4.84375C0 4.97656 0.09375 5.05469 0.242188 5.07031C1.89844 5.32812 2 5.39062 2.1875 7.02344C2.20312 7.16406 2.28906 7.25 2.42188 7.25Z" fill="black" fill-opacity="0.85"/>
  <path d="M6.57031 13.9844C6.73438 13.9844 6.86719 13.8672 6.89844 13.6875C7.35156 10.4297 7.85156 9.85938 11.0938 9.47656C11.2812 9.46094 11.4141 9.32031 11.4141 9.14844C11.4141 8.96875 11.2812 8.83594 11.0938 8.8125C7.85156 8.42969 7.35156 7.86719 6.89844 4.60938C6.86719 4.42188 6.73438 4.30469 6.57031 4.30469C6.39844 4.30469 6.26562 4.42188 6.24219 4.60938C5.78125 7.86719 5.28125 8.42969 2.03906 8.8125C1.85156 8.83594 1.72656 8.96875 1.72656 9.14844C1.72656 9.32031 1.85156 9.46094 2.03906 9.47656C5.27344 9.91406 5.76562 10.4297 6.24219 13.6875C6.26562 13.8672 6.39844 13.9844 6.57031 13.9844Z" fill="black" fill-opacity="0.85"/>
 </g>
</svg>
