<?xml version="1.0" encoding="UTF-8"?>
<!--Generator: Apple Native CoreSVG 326-->
<!DOCTYPE svg
PUBLIC "-//W3C//DTD SVG 1.1//EN"
       "http://www.w3.org/Graphics/SVG/1.1/DTD/svg11.dtd">
<svg version="1.1" xmlns="http://www.w3.org/2000/svg" xmlns:xlink="http://www.w3.org/1999/xlink" viewBox="0 0 14.2734 10.9453">
 <g>
  <rect height="10.9453" opacity="0" width="14.2734" x="0" y="0"/>
  <path d="M11.8672 9.6875C12.125 9.85938 12.4453 9.80469 12.6328 9.53125C13.4141 8.44531 13.8672 6.96875 13.8672 5.46875C13.8672 3.96875 13.4219 2.47656 12.6328 1.40625C12.4453 1.13281 12.125 1.07812 11.8672 1.25C11.6094 1.42188 11.5625 1.75 11.7656 2.03906C12.4141 2.96094 12.7812 4.20312 12.7812 5.46875C12.7812 6.73438 12.3984 7.96875 11.7656 8.89844C11.5703 9.1875 11.6094 9.51562 11.8672 9.6875Z" fill="black" fill-opacity="0.85"/>
  <path d="M9.52344 8.10156C9.75781 8.25781 10.0859 8.21094 10.2734 7.9375C10.7422 7.3125 11.0156 6.39062 11.0156 5.46875C11.0156 4.54688 10.7422 3.63281 10.2734 3C10.0859 2.72656 9.75781 2.67969 9.52344 2.84375C9.24219 3.03906 9.19531 3.38281 9.41406 3.67188C9.74219 4.11719 9.92969 4.79688 9.92969 5.46875C9.92969 6.14062 9.73438 6.8125 9.41406 7.26562C9.20312 7.5625 9.24219 7.89844 9.52344 8.10156Z" fill="black" fill-opacity="0.85"/>
  <path d="M6.65625 10.9453C7.08594 10.9453 7.41406 10.6328 7.41406 10.1953L7.41406 0.796875C7.41406 0.367188 7.08594 0.0078125 6.64062 0.0078125C6.32812 0.0078125 6.125 0.140625 5.76562 0.476562L3.19531 2.86719C3.16406 2.89844 3.11719 2.92188 3.07031 2.92188L1.35938 2.92188C0.460938 2.92188 0 3.38281 0 4.35156L0 6.60938C0 7.57031 0.460938 8.03906 1.35938 8.03906L3.07031 8.03906C3.11719 8.03906 3.16406 8.05469 3.19531 8.08594L5.76562 10.5234C6.08594 10.8203 6.34375 10.9453 6.65625 10.9453Z" fill="black" fill-opacity="0.85"/>
 </g>
</svg>
