<?xml version="1.0" encoding="UTF-8"?>
<!--Generator: Apple Native CoreSVG 326-->
<!DOCTYPE svg
PUBLIC "-//W3C//DTD SVG 1.1//EN"
       "http://www.w3.org/Graphics/SVG/1.1/DTD/svg11.dtd">
<svg version="1.1" xmlns="http://www.w3.org/2000/svg" xmlns:xlink="http://www.w3.org/1999/xlink" viewBox="0 0 11.3984 15.7891">
 <g>
  <rect height="15.7891" opacity="0" width="11.3984" x="0" y="0"/>
  <path d="M10.9922 6.57812L10.9922 12.5859C10.9922 13.8984 10.3359 14.5469 9 14.5469L1.99219 14.5469C0.664062 14.5469 0 13.8984 0 12.5859L0 6.57812C0 5.26562 0.664062 4.61719 1.99219 4.61719L3.71094 4.61719L3.71094 5.74219L2.00781 5.74219C1.44531 5.74219 1.125 6.04688 1.125 6.64062L1.125 12.5234C1.125 13.1172 1.44531 13.4219 2.00781 13.4219L8.98438 13.4219C9.53906 13.4219 9.86719 13.1172 9.86719 12.5234L9.86719 6.64062C9.86719 6.04688 9.53906 5.74219 8.98438 5.74219L7.27344 5.74219L7.27344 4.61719L9 4.61719C10.3359 4.61719 10.9922 5.27344 10.9922 6.57812Z" fill="white" fill-opacity="0.85"/>
  <path d="M5.49219 1.24219C5.19531 1.24219 4.9375 1.49219 4.9375 1.78125L4.9375 7.875L4.98438 8.80469L4.67188 8.46875L3.80469 7.53125C3.71094 7.42188 3.5625 7.36719 3.42188 7.36719C3.13281 7.36719 2.92188 7.57031 2.92188 7.85938C2.92188 8.00781 2.97656 8.11719 3.08594 8.22656L5.09375 10.1406C5.23438 10.2812 5.35156 10.3281 5.49219 10.3281C5.64062 10.3281 5.75781 10.2812 5.89844 10.1406L7.90625 8.22656C8.00781 8.11719 8.07031 8.00781 8.07031 7.85938C8.07031 7.57031 7.85156 7.36719 7.5625 7.36719C7.42188 7.36719 7.28125 7.42188 7.17969 7.53125L6.32031 8.46875L6.00781 8.80469L6.05469 7.875L6.05469 1.78125C6.05469 1.49219 5.79688 1.24219 5.49219 1.24219Z" fill="white" fill-opacity="0.85"/>
 </g>
</svg>
